<?xml version="1.0" ?>
<!DOCTYPE svg  PUBLIC '-//W3C//DTD SVG 1.1//EN'  'http://www.w3.org/Graphics/SVG/1.1/DTD/svg11.dtd'>
<!-- Uploaded to: SVG Repo, www.svgrepo.com, Generator: SVG Repo Mixer Tools -->
<svg fill="#000000" width="800px" height="800px" viewBox="0 0 512 512" enable-background="new 0 0 512 512" id="Data_x5F_analysis" version="1.1" xml:space="preserve" xmlns="http://www.w3.org/2000/svg" xmlns:xlink="http://www.w3.org/1999/xlink">
<g>
<path d="M281.167,409.359c-3.74,0-6.774,3.033-6.774,6.773v10.201H52.458V135.988h10.938c3.742,0,6.774-3.032,6.774-6.774   c0-3.741-3.033-6.773-6.774-6.773H45.684c-3.742,0-6.774,3.032-6.774,6.773v303.895c0,3.74,3.033,6.774,6.774,6.774h235.483   c3.74,0,6.774-3.034,6.774-6.774v-16.976C287.941,412.393,284.907,409.359,281.167,409.359z"/>
<path d="M326.975,337.393c-3.741,0-6.774,3.032-6.774,6.773v37.652H98.265V91.473h106.182c3.742,0,6.774-3.033,6.774-6.774   s-3.033-6.774-6.774-6.774H91.49c-3.741,0-6.774,3.033-6.774,6.774v303.894c0,3.742,3.033,6.774,6.774,6.774h235.484   c3.74,0,6.773-3.032,6.773-6.774v-44.426C333.748,340.425,330.715,337.393,326.975,337.393z"/>
<path d="M326.975,145.359c-3.741,0-6.774,3.033-6.774,6.774v89.826c0,3.741,3.033,6.774,6.774,6.774   c3.74,0,6.773-3.033,6.773-6.774v-89.826C333.748,148.393,330.715,145.359,326.975,145.359z"/>
<path d="M128.828,357.518h31.519c3.741,0,6.774-3.033,6.774-6.774v-69.582c0-3.741-3.033-6.774-6.774-6.774h-31.519   c-3.742,0-6.774,3.033-6.774,6.774v69.582C122.054,354.484,125.086,357.518,128.828,357.518z M135.602,287.936h17.97v56.033h-17.97   V287.936z"/>
<path d="M196.65,297.088c-3.742,0-6.774,3.032-6.774,6.773v46.882c0,3.741,3.033,6.774,6.774,6.774h31.519   c3.741,0,6.774-3.033,6.774-6.774v-23.201c0-3.741-3.033-6.774-6.774-6.774c-3.742,0-6.774,3.033-6.774,6.774v16.427h-17.97   v-40.107C203.424,300.12,200.392,297.088,196.65,297.088z"/>
<path d="M264.472,332.805c-3.74,0-6.774,3.033-6.774,6.774v11.164c0,3.741,3.034,6.774,6.774,6.774h31.52   c3.74,0,6.774-3.033,6.774-6.774v-11.164c0-3.741-3.034-6.774-6.774-6.774c-3.741,0-6.774,3.033-6.774,6.774v4.39h-17.971v-4.39   C271.246,335.838,268.212,332.805,264.472,332.805z"/>
<path d="M285.234,147.596c-2.646-2.645-6.933-2.646-9.579,0.001l-45.845,45.845c-2.646,2.646-2.646,6.934,0.001,9.58   c2.644,2.645,6.934,2.646,9.58-0.001l41.054-41.054l7.945,7.945l-50.506,50.506c-2.646,2.646-2.646,6.936,0,9.581   c1.323,1.322,3.057,1.984,4.791,1.984c1.733,0,3.467-0.662,4.79-1.984l55.297-55.296c1.271-1.271,1.984-2.994,1.984-4.791   c0-1.796-0.714-3.52-1.984-4.79L285.234,147.596z"/>
<path d="M133.228,241.125c1.323,1.321,3.057,1.983,4.791,1.983s3.468-0.662,4.791-1.983l17.884-17.885   c2.646-2.646,2.646-6.935,0-9.581c-2.646-2.645-6.935-2.645-9.581,0l-13.094,13.095l-7.946-7.946l30.621-30.62   c2.646-2.646,2.646-6.935,0-9.58c-2.646-2.645-6.935-2.645-9.581,0l-35.41,35.41c-2.646,2.646-2.646,6.935,0,9.581L133.228,241.125   z"/>
<path d="M465.489,330.97l-39.484-39.484c-2.646-2.645-6.933-2.645-9.579,0c-2.646,2.646-2.646,6.935,0,9.581l39.484,39.484   c2.35,2.351,3.645,5.476,3.645,8.8c0,3.323-1.295,6.448-3.645,8.8c-4.854,4.854-12.746,4.854-17.601,0l-62.422-62.422   c28.195-23.148,46.216-58.255,46.216-97.497c0-69.54-56.573-126.114-126.112-126.114c-69.54,0-126.114,56.574-126.114,126.114   s56.574,126.113,126.114,126.113c25.385,0,49.023-7.564,68.831-20.521l63.908,63.906c4.909,4.909,11.438,7.613,18.38,7.613   s13.471-2.704,18.379-7.613C475.625,357.596,475.625,341.104,465.489,330.97z M295.991,310.797   c-62.069,0-112.565-50.497-112.565-112.565c0-62.069,50.497-112.565,112.565-112.565c62.067,0,112.564,50.496,112.564,112.565   C408.556,260.3,358.059,310.797,295.991,310.797z"/>
<path d="M295.991,105.72c-51.012,0-92.512,41.501-92.512,92.512s41.5,92.511,92.512,92.511c51.011,0,92.51-41.5,92.51-92.511   S347.002,105.72,295.991,105.72z M295.991,277.193c-43.541,0-78.964-35.422-78.964-78.962s35.423-78.963,78.964-78.963   c43.539,0,78.962,35.423,78.962,78.963S339.53,277.193,295.991,277.193z"/>
<path d="M125.331,135.604v-9.918c0-3.741-3.033-6.774-6.774-6.774c-3.742,0-6.774,3.033-6.774,6.774v9.918   c0,3.742,3.033,6.774,6.774,6.774C122.298,142.379,125.331,139.347,125.331,135.604z"/>
<path d="M147.423,135.604v-21.235c0-3.741-3.033-6.774-6.774-6.774c-3.741,0-6.774,3.033-6.774,6.774v21.235   c0,3.742,3.033,6.774,6.774,6.774C144.39,142.379,147.423,139.347,147.423,135.604z"/>
<path d="M169.516,135.604v-3.455c0-3.741-3.033-6.774-6.774-6.774c-3.741,0-6.774,3.033-6.774,6.774v3.455   c0,3.742,3.033,6.774,6.774,6.774C166.483,142.379,169.516,139.347,169.516,135.604z"/>
</g>
</svg>